<mxfile host="Electron" modified="2024-06-15T22:37:55.049Z" agent="Mozilla/5.0 (Windows NT 10.0; Win64; x64) AppleWebKit/537.36 (KHTML, like Gecko) draw.io/24.5.1 Chrome/124.0.6367.207 Electron/30.0.6 Safari/537.36" etag="05J-8zi4ESXiDa41VFd1" version="24.5.1" type="device">
  <diagram name="Page-1" id="58cdce13-f638-feb5-8d6f-7d28b1aa9fa0">
    <mxGraphModel dx="1098" dy="820" grid="1" gridSize="10" guides="1" tooltips="1" connect="1" arrows="1" fold="1" page="1" pageScale="1" pageWidth="1100" pageHeight="850" background="none" math="0" shadow="0">
      <root>
        <mxCell id="0" />
        <mxCell id="1" parent="0" />
        <mxCell id="382b91b5511bd0f7-1" value="" style="ellipse;html=1;shape=startState;fillColor=#000000;strokeColor=#ff0000;rounded=1;shadow=0;comic=0;labelBackgroundColor=none;fontFamily=Verdana;fontSize=12;fontColor=#000000;align=center;direction=south;" parent="1" vertex="1">
          <mxGeometry x="40" y="10" width="30" height="30" as="geometry" />
        </mxCell>
        <mxCell id="382b91b5511bd0f7-5" value="&lt;b&gt;Reset Quality&lt;/b&gt;&lt;br&gt;BlockCalc = 0&lt;br&gt;ContInvalid = 0" style="rounded=1;whiteSpace=wrap;html=1;arcSize=24;fillColor=#ffffc0;strokeColor=#ff0000;shadow=0;comic=0;labelBackgroundColor=none;fontFamily=Verdana;fontSize=12;fontColor=#000000;align=center;" parent="1" vertex="1">
          <mxGeometry x="50" y="150" width="120" height="60" as="geometry" />
        </mxCell>
        <mxCell id="382b91b5511bd0f7-6" value="&lt;b&gt;Initial Quality&lt;/b&gt;&lt;br&gt;BlockCalc = 0&lt;br&gt;ContInvalid = 0" style="rounded=1;whiteSpace=wrap;html=1;arcSize=24;fillColor=#ffffc0;strokeColor=#ff0000;shadow=0;comic=0;labelBackgroundColor=none;fontFamily=Verdana;fontSize=12;fontColor=#000000;align=center;" parent="1" vertex="1">
          <mxGeometry x="190" y="60" width="120" height="60" as="geometry" />
        </mxCell>
        <mxCell id="382b91b5511bd0f7-7" value="&lt;b&gt;Get &lt;br&gt;Sample Quality&lt;/b&gt;" style="rounded=1;whiteSpace=wrap;html=1;arcSize=24;fillColor=#ffffc0;strokeColor=#ff0000;shadow=0;comic=0;labelBackgroundColor=none;fontFamily=Verdana;fontSize=12;fontColor=#000000;align=center;" parent="1" vertex="1">
          <mxGeometry x="400" y="60" width="120" height="60" as="geometry" />
        </mxCell>
        <mxCell id="382b91b5511bd0f7-9" value="&lt;b&gt;Invalid&lt;/b&gt;&lt;br&gt;ContInvalid += 1" style="rounded=1;whiteSpace=wrap;html=1;arcSize=24;fillColor=#ffffc0;strokeColor=#ff0000;shadow=0;comic=0;labelBackgroundColor=none;fontFamily=Verdana;fontSize=12;fontColor=#000000;align=center;" parent="1" vertex="1">
          <mxGeometry x="560" y="240" width="120" height="60" as="geometry" />
        </mxCell>
        <mxCell id="382b91b5511bd0f7-10" value="&lt;b&gt;Valid&lt;/b&gt;" style="rounded=1;whiteSpace=wrap;html=1;arcSize=24;fillColor=#ffffc0;strokeColor=#ff0000;shadow=0;comic=0;labelBackgroundColor=none;fontFamily=Verdana;fontSize=12;fontColor=#000000;align=center;" parent="1" vertex="1">
          <mxGeometry x="240" y="240" width="120" height="60" as="geometry" />
        </mxCell>
        <mxCell id="2a3bc250acf0617d-9" style="edgeStyle=orthogonalEdgeStyle;html=1;labelBackgroundColor=none;endArrow=open;endSize=8;strokeColor=#ff0000;fontFamily=Verdana;fontSize=12;align=left;" parent="1" source="382b91b5511bd0f7-1" target="382b91b5511bd0f7-6" edge="1">
          <mxGeometry relative="1" as="geometry" />
        </mxCell>
        <mxCell id="dteMNdMqzlH5e8aGmHEx-1" style="edgeStyle=orthogonalEdgeStyle;html=1;exitX=1;exitY=0.5;entryX=0;entryY=0.5;labelBackgroundColor=none;endArrow=open;endSize=8;strokeColor=#ff0000;fontFamily=Verdana;fontSize=12;align=left;entryDx=0;entryDy=0;exitDx=0;exitDy=0;" parent="1" source="382b91b5511bd0f7-6" target="382b91b5511bd0f7-7" edge="1">
          <mxGeometry relative="1" as="geometry">
            <mxPoint x="350" y="250" as="sourcePoint" />
            <mxPoint x="460" y="190" as="targetPoint" />
            <Array as="points">
              <mxPoint x="380" y="90" />
              <mxPoint x="380" y="90" />
            </Array>
          </mxGeometry>
        </mxCell>
        <mxCell id="dteMNdMqzlH5e8aGmHEx-2" value="&lt;b&gt;Questionable&lt;/b&gt;" style="rounded=1;whiteSpace=wrap;html=1;arcSize=24;fillColor=#ffffc0;strokeColor=#ff0000;shadow=0;comic=0;labelBackgroundColor=none;fontFamily=Verdana;fontSize=12;fontColor=#000000;align=center;" parent="1" vertex="1">
          <mxGeometry x="400" y="240" width="120" height="60" as="geometry" />
        </mxCell>
        <mxCell id="dteMNdMqzlH5e8aGmHEx-4" value="&lt;div&gt;&lt;br/&gt;&lt;/div&gt;" style="edgeStyle=orthogonalEdgeStyle;html=1;labelBackgroundColor=none;endArrow=open;endSize=8;strokeColor=#ff0000;fontFamily=Verdana;fontSize=12;align=left;exitX=0;exitY=0.5;exitDx=0;exitDy=0;" parent="1" edge="1">
          <mxGeometry relative="1" as="geometry">
            <mxPoint x="240" y="260" as="sourcePoint" />
            <mxPoint x="150" y="210" as="targetPoint" />
            <Array as="points">
              <mxPoint x="240" y="270" />
              <mxPoint x="150" y="270" />
              <mxPoint x="150" y="210" />
            </Array>
          </mxGeometry>
        </mxCell>
        <mxCell id="dteMNdMqzlH5e8aGmHEx-5" style="edgeStyle=orthogonalEdgeStyle;html=1;exitX=0.5;exitY=0;entryX=0.5;entryY=1;labelBackgroundColor=none;endArrow=open;endSize=8;strokeColor=#ff0000;fontFamily=Verdana;fontSize=12;align=left;entryDx=0;entryDy=0;exitDx=0;exitDy=0;" parent="1" edge="1">
          <mxGeometry relative="1" as="geometry">
            <mxPoint x="480" y="240" as="sourcePoint" />
            <mxPoint x="480" y="120" as="targetPoint" />
            <Array as="points" />
          </mxGeometry>
        </mxCell>
        <mxCell id="dteMNdMqzlH5e8aGmHEx-6" style="edgeStyle=orthogonalEdgeStyle;html=1;exitX=0.25;exitY=1;entryX=0.25;entryY=0;labelBackgroundColor=none;endArrow=open;endSize=8;strokeColor=#ff0000;fontFamily=Verdana;fontSize=12;align=left;entryDx=0;entryDy=0;exitDx=0;exitDy=0;" parent="1" edge="1">
          <mxGeometry relative="1" as="geometry">
            <mxPoint x="440" y="120" as="sourcePoint" />
            <mxPoint x="440" y="240" as="targetPoint" />
            <Array as="points" />
          </mxGeometry>
        </mxCell>
        <mxCell id="dteMNdMqzlH5e8aGmHEx-9" value="Questionable&lt;br&gt;Sample" style="edgeLabel;html=1;align=center;verticalAlign=middle;resizable=0;points=[];" parent="dteMNdMqzlH5e8aGmHEx-6" vertex="1" connectable="0">
          <mxGeometry x="0.4" y="1" relative="1" as="geometry">
            <mxPoint as="offset" />
          </mxGeometry>
        </mxCell>
        <mxCell id="dteMNdMqzlH5e8aGmHEx-7" style="edgeStyle=orthogonalEdgeStyle;html=1;entryX=0.25;entryY=0;labelBackgroundColor=none;endArrow=open;endSize=8;strokeColor=#ff0000;fontFamily=Verdana;fontSize=12;align=left;entryDx=0;entryDy=0;exitX=0.25;exitY=1;exitDx=0;exitDy=0;" parent="1" source="382b91b5511bd0f7-7" edge="1">
          <mxGeometry relative="1" as="geometry">
            <mxPoint x="420" y="150" as="sourcePoint" />
            <mxPoint x="310" y="240" as="targetPoint" />
            <Array as="points" />
          </mxGeometry>
        </mxCell>
        <mxCell id="dteMNdMqzlH5e8aGmHEx-8" value="Valid&lt;br&gt;Sample" style="edgeLabel;html=1;align=center;verticalAlign=middle;resizable=0;points=[];" parent="dteMNdMqzlH5e8aGmHEx-7" vertex="1" connectable="0">
          <mxGeometry x="0.2275" y="2" relative="1" as="geometry">
            <mxPoint as="offset" />
          </mxGeometry>
        </mxCell>
        <mxCell id="dteMNdMqzlH5e8aGmHEx-10" style="edgeStyle=orthogonalEdgeStyle;html=1;exitX=0.75;exitY=1;labelBackgroundColor=none;endArrow=open;endSize=8;strokeColor=#ff0000;fontFamily=Verdana;fontSize=12;align=left;exitDx=0;exitDy=0;" parent="1" source="382b91b5511bd0f7-7" edge="1">
          <mxGeometry relative="1" as="geometry">
            <mxPoint x="500" y="140" as="sourcePoint" />
            <mxPoint x="620" y="240" as="targetPoint" />
            <Array as="points" />
          </mxGeometry>
        </mxCell>
        <mxCell id="dteMNdMqzlH5e8aGmHEx-11" value="Invalid&lt;br&gt;Sample" style="edgeLabel;html=1;align=center;verticalAlign=middle;resizable=0;points=[];" parent="dteMNdMqzlH5e8aGmHEx-10" vertex="1" connectable="0">
          <mxGeometry x="0.4" y="1" relative="1" as="geometry">
            <mxPoint x="-35" y="1" as="offset" />
          </mxGeometry>
        </mxCell>
        <mxCell id="dteMNdMqzlH5e8aGmHEx-12" style="edgeStyle=orthogonalEdgeStyle;html=1;exitX=0.25;exitY=1;entryX=0.5;entryY=0;labelBackgroundColor=none;endArrow=open;endSize=8;strokeColor=#ff0000;fontFamily=Verdana;fontSize=12;align=left;entryDx=0;entryDy=0;exitDx=0;exitDy=0;" parent="1" source="382b91b5511bd0f7-9" target="dteMNdMqzlH5e8aGmHEx-14" edge="1">
          <mxGeometry relative="1" as="geometry">
            <mxPoint x="600" y="305" as="sourcePoint" />
            <mxPoint x="600" y="425" as="targetPoint" />
            <Array as="points" />
          </mxGeometry>
        </mxCell>
        <mxCell id="dteMNdMqzlH5e8aGmHEx-13" value="ContInvalid &amp;gt;= 10" style="edgeLabel;html=1;align=center;verticalAlign=middle;resizable=0;points=[];" parent="dteMNdMqzlH5e8aGmHEx-12" vertex="1" connectable="0">
          <mxGeometry x="0.4" y="1" relative="1" as="geometry">
            <mxPoint x="36" as="offset" />
          </mxGeometry>
        </mxCell>
        <mxCell id="dteMNdMqzlH5e8aGmHEx-14" value="&lt;b&gt;Verify Backup MU Principal&lt;/b&gt;&lt;br&gt;BlockCalc = 1&lt;div&gt;&lt;br/&gt;&lt;/div&gt;" style="rounded=1;whiteSpace=wrap;html=1;arcSize=24;fillColor=#ffffc0;strokeColor=#ff0000;shadow=0;comic=0;labelBackgroundColor=none;fontFamily=Verdana;fontSize=12;fontColor=#000000;align=center;" parent="1" vertex="1">
          <mxGeometry x="370" y="365" width="120" height="60" as="geometry" />
        </mxCell>
        <mxCell id="dteMNdMqzlH5e8aGmHEx-15" style="edgeStyle=orthogonalEdgeStyle;html=1;exitX=0.75;exitY=0;entryX=1;entryY=0.5;labelBackgroundColor=none;endArrow=open;endSize=8;strokeColor=#ff0000;fontFamily=Verdana;fontSize=12;align=left;entryDx=0;entryDy=0;exitDx=0;exitDy=0;" parent="1" source="382b91b5511bd0f7-9" target="382b91b5511bd0f7-7" edge="1">
          <mxGeometry relative="1" as="geometry">
            <mxPoint x="650" y="230" as="sourcePoint" />
            <mxPoint x="650" y="110" as="targetPoint" />
            <Array as="points" />
          </mxGeometry>
        </mxCell>
        <mxCell id="dteMNdMqzlH5e8aGmHEx-16" value="ContInvalid &amp;lt; 10" style="edgeLabel;html=1;align=center;verticalAlign=middle;resizable=0;points=[];" parent="dteMNdMqzlH5e8aGmHEx-15" vertex="1" connectable="0">
          <mxGeometry x="-0.4929" relative="1" as="geometry">
            <mxPoint y="-29" as="offset" />
          </mxGeometry>
        </mxCell>
        <mxCell id="dteMNdMqzlH5e8aGmHEx-17" value="" style="ellipse;html=1;shape=startState;fillColor=#000000;strokeColor=#ff0000;rounded=1;shadow=0;comic=0;labelBackgroundColor=none;fontFamily=Verdana;fontSize=12;fontColor=#000000;align=center;direction=south;" parent="1" vertex="1">
          <mxGeometry x="801" y="10" width="30" height="30" as="geometry" />
        </mxCell>
        <mxCell id="dteMNdMqzlH5e8aGmHEx-18" value="&lt;b&gt;Initial Value&lt;br&gt;&lt;/b&gt;&lt;div style=&quot;border-color: var(--border-color);&quot;&gt;ContSMU = 0&lt;br style=&quot;border-color: var(--border-color);&quot;&gt;&lt;/div&gt;&lt;div style=&quot;border-color: var(--border-color);&quot;&gt;ContKMU = 0&lt;/div&gt;" style="rounded=1;whiteSpace=wrap;html=1;arcSize=24;fillColor=#ffffc0;strokeColor=#ff0000;shadow=0;comic=0;labelBackgroundColor=none;fontFamily=Verdana;fontSize=12;fontColor=#000000;align=center;" parent="1" vertex="1">
          <mxGeometry x="861" y="60" width="120" height="60" as="geometry" />
        </mxCell>
        <mxCell id="dteMNdMqzlH5e8aGmHEx-19" style="edgeStyle=orthogonalEdgeStyle;html=1;labelBackgroundColor=none;endArrow=open;endSize=8;strokeColor=#ff0000;fontFamily=Verdana;fontSize=12;align=left;" parent="1" source="dteMNdMqzlH5e8aGmHEx-17" target="dteMNdMqzlH5e8aGmHEx-18" edge="1">
          <mxGeometry relative="1" as="geometry" />
        </mxCell>
        <mxCell id="dteMNdMqzlH5e8aGmHEx-26" value="&lt;b&gt;Get &lt;br&gt;Sample Value&lt;/b&gt;" style="rounded=1;whiteSpace=wrap;html=1;arcSize=24;fillColor=#ffffc0;strokeColor=#ff0000;shadow=0;comic=0;labelBackgroundColor=none;fontFamily=Verdana;fontSize=12;fontColor=#000000;align=center;" parent="1" vertex="1">
          <mxGeometry x="861" y="170" width="120" height="60" as="geometry" />
        </mxCell>
        <mxCell id="dteMNdMqzlH5e8aGmHEx-27" style="edgeStyle=orthogonalEdgeStyle;html=1;exitX=0.5;exitY=1;labelBackgroundColor=none;endArrow=open;endSize=8;strokeColor=#ff0000;fontFamily=Verdana;fontSize=12;align=left;exitDx=0;exitDy=0;entryX=0.5;entryY=0;entryDx=0;entryDy=0;" parent="1" source="dteMNdMqzlH5e8aGmHEx-18" target="dteMNdMqzlH5e8aGmHEx-26" edge="1">
          <mxGeometry relative="1" as="geometry">
            <mxPoint x="906" y="180" as="sourcePoint" />
            <mxPoint x="921" y="260" as="targetPoint" />
            <Array as="points" />
          </mxGeometry>
        </mxCell>
        <mxCell id="dteMNdMqzlH5e8aGmHEx-29" style="edgeStyle=orthogonalEdgeStyle;html=1;exitX=0.5;exitY=0;entryX=0;entryY=0.75;labelBackgroundColor=none;endArrow=open;endSize=8;strokeColor=#ff0000;fontFamily=Verdana;fontSize=12;align=left;entryDx=0;entryDy=0;exitDx=0;exitDy=0;" parent="1" source="382b91b5511bd0f7-5" target="382b91b5511bd0f7-7" edge="1">
          <mxGeometry relative="1" as="geometry">
            <mxPoint x="120" y="140" as="sourcePoint" />
            <mxPoint x="210" y="140" as="targetPoint" />
            <Array as="points">
              <mxPoint x="110" y="130" />
              <mxPoint x="380" y="130" />
              <mxPoint x="380" y="105" />
            </Array>
          </mxGeometry>
        </mxCell>
        <mxCell id="dteMNdMqzlH5e8aGmHEx-30" value="&lt;b&gt;Switch to Backup Samples&lt;/b&gt;" style="rounded=1;whiteSpace=wrap;html=1;arcSize=24;fillColor=#ffffc0;strokeColor=#ff0000;shadow=0;comic=0;labelBackgroundColor=none;fontFamily=Verdana;fontSize=12;fontColor=#000000;align=center;" parent="1" vertex="1">
          <mxGeometry x="280" y="560" width="120" height="60" as="geometry" />
        </mxCell>
        <mxCell id="dteMNdMqzlH5e8aGmHEx-33" value="&lt;b&gt;Toogle MU&lt;/b&gt;&lt;div&gt;&lt;div&gt;ContSMU = 0&lt;br&gt;&lt;/div&gt;&lt;div&gt;ContKMU = 0&lt;/div&gt;&lt;/div&gt;" style="rounded=1;whiteSpace=wrap;html=1;arcSize=24;fillColor=#ffffc0;strokeColor=#ff0000;shadow=0;comic=0;labelBackgroundColor=none;fontFamily=Verdana;fontSize=12;fontColor=#000000;align=center;" parent="1" vertex="1">
          <mxGeometry x="480" y="560" width="120" height="60" as="geometry" />
        </mxCell>
        <mxCell id="dteMNdMqzlH5e8aGmHEx-34" value="&lt;div&gt;&lt;br/&gt;&lt;/div&gt;" style="edgeStyle=orthogonalEdgeStyle;html=1;labelBackgroundColor=none;endArrow=open;endSize=8;strokeColor=#ff0000;fontFamily=Verdana;fontSize=12;align=left;exitX=0.5;exitY=1;exitDx=0;exitDy=0;entryX=0.25;entryY=1;entryDx=0;entryDy=0;" parent="1" source="dteMNdMqzlH5e8aGmHEx-33" target="382b91b5511bd0f7-5" edge="1">
          <mxGeometry relative="1" as="geometry">
            <mxPoint x="220" y="840" as="sourcePoint" />
            <mxPoint x="70" y="260" as="targetPoint" />
            <Array as="points">
              <mxPoint x="540" y="740" />
              <mxPoint x="60" y="740" />
              <mxPoint x="60" y="260" />
              <mxPoint x="80" y="260" />
            </Array>
          </mxGeometry>
        </mxCell>
        <mxCell id="dteMNdMqzlH5e8aGmHEx-35" style="edgeStyle=orthogonalEdgeStyle;html=1;entryX=0.5;entryY=0;labelBackgroundColor=none;endArrow=open;endSize=8;strokeColor=#ff0000;fontFamily=Verdana;fontSize=12;align=left;entryDx=0;entryDy=0;" parent="1" target="dteMNdMqzlH5e8aGmHEx-30" edge="1">
          <mxGeometry relative="1" as="geometry">
            <mxPoint x="400" y="430" as="sourcePoint" />
            <mxPoint x="429.5" y="560" as="targetPoint" />
            <Array as="points">
              <mxPoint x="400" y="425" />
              <mxPoint x="400" y="493" />
              <mxPoint x="340" y="493" />
            </Array>
          </mxGeometry>
        </mxCell>
        <mxCell id="dteMNdMqzlH5e8aGmHEx-36" value="Sample = Valid" style="edgeLabel;html=1;align=center;verticalAlign=middle;resizable=0;points=[];" parent="dteMNdMqzlH5e8aGmHEx-35" vertex="1" connectable="0">
          <mxGeometry x="0.4" y="1" relative="1" as="geometry">
            <mxPoint x="39" y="-40" as="offset" />
          </mxGeometry>
        </mxCell>
        <mxCell id="dteMNdMqzlH5e8aGmHEx-37" style="edgeStyle=orthogonalEdgeStyle;html=1;exitX=0.75;exitY=1;labelBackgroundColor=none;endArrow=open;endSize=8;strokeColor=#ff0000;fontFamily=Verdana;fontSize=12;align=left;exitDx=0;exitDy=0;entryX=0.5;entryY=0;entryDx=0;entryDy=0;" parent="1" source="dteMNdMqzlH5e8aGmHEx-14" target="dteMNdMqzlH5e8aGmHEx-33" edge="1">
          <mxGeometry relative="1" as="geometry">
            <mxPoint x="450" y="440" as="sourcePoint" />
            <mxPoint x="550" y="530" as="targetPoint" />
            <Array as="points" />
          </mxGeometry>
        </mxCell>
        <mxCell id="dteMNdMqzlH5e8aGmHEx-38" value="Sample != Valid" style="edgeLabel;html=1;align=center;verticalAlign=middle;resizable=0;points=[];" parent="dteMNdMqzlH5e8aGmHEx-37" vertex="1" connectable="0">
          <mxGeometry x="0.4" y="1" relative="1" as="geometry">
            <mxPoint x="-71" y="-36" as="offset" />
          </mxGeometry>
        </mxCell>
        <mxCell id="dteMNdMqzlH5e8aGmHEx-40" value="&lt;div&gt;&lt;br/&gt;&lt;/div&gt;" style="edgeStyle=orthogonalEdgeStyle;html=1;labelBackgroundColor=none;endArrow=open;endSize=8;strokeColor=#ff0000;fontFamily=Verdana;fontSize=12;align=left;exitX=0;exitY=0.5;exitDx=0;exitDy=0;entryX=0.5;entryY=1;entryDx=0;entryDy=0;" parent="1" source="dteMNdMqzlH5e8aGmHEx-30" target="382b91b5511bd0f7-5" edge="1">
          <mxGeometry relative="1" as="geometry">
            <mxPoint x="200" y="320" as="sourcePoint" />
            <mxPoint x="110" y="270" as="targetPoint" />
            <Array as="points">
              <mxPoint x="110" y="590" />
            </Array>
          </mxGeometry>
        </mxCell>
        <mxCell id="Y7ORPjoq6ikZlCJi7uoU-3" value="&lt;b&gt;Calculus of Dispersion&lt;/b&gt;&lt;br&gt;ContSMU += 1&lt;br&gt;or&lt;br&gt;ContKMU +=1" style="rounded=1;whiteSpace=wrap;html=1;arcSize=24;fillColor=#ffffc0;strokeColor=#ff0000;shadow=0;comic=0;labelBackgroundColor=none;fontFamily=Verdana;fontSize=12;fontColor=#000000;align=center;" parent="1" vertex="1">
          <mxGeometry x="861" y="270" width="120" height="70" as="geometry" />
        </mxCell>
        <mxCell id="Y7ORPjoq6ikZlCJi7uoU-4" value="&lt;b&gt;Check the Error Percentage&lt;/b&gt;" style="rounded=1;whiteSpace=wrap;html=1;arcSize=24;fillColor=#ffffc0;strokeColor=#ff0000;shadow=0;comic=0;labelBackgroundColor=none;fontFamily=Verdana;fontSize=12;fontColor=#000000;align=center;" parent="1" vertex="1">
          <mxGeometry x="761" y="440" width="120" height="60" as="geometry" />
        </mxCell>
        <mxCell id="Y7ORPjoq6ikZlCJi7uoU-5" value="&lt;b&gt;Keep MU&lt;/b&gt;" style="rounded=1;whiteSpace=wrap;html=1;arcSize=24;fillColor=#ffffc0;strokeColor=#ff0000;shadow=0;comic=0;labelBackgroundColor=none;fontFamily=Verdana;fontSize=12;fontColor=#000000;align=center;" parent="1" vertex="1">
          <mxGeometry x="961" y="440" width="120" height="60" as="geometry" />
        </mxCell>
        <mxCell id="Y7ORPjoq6ikZlCJi7uoU-6" value="&lt;b&gt;Reset &lt;br&gt;Dispersion&lt;br&gt;&lt;/b&gt;&lt;div&gt;ContSMU = 0&lt;br&gt;&lt;/div&gt;&lt;div&gt;ContKMU = 0&lt;/div&gt;" style="rounded=1;whiteSpace=wrap;html=1;arcSize=24;fillColor=#ffffc0;strokeColor=#ff0000;shadow=0;comic=0;labelBackgroundColor=none;fontFamily=Verdana;fontSize=12;fontColor=#000000;align=center;" parent="1" vertex="1">
          <mxGeometry x="861" y="710" width="120" height="60" as="geometry" />
        </mxCell>
        <mxCell id="Y7ORPjoq6ikZlCJi7uoU-9" style="edgeStyle=orthogonalEdgeStyle;html=1;exitX=0.5;exitY=1;labelBackgroundColor=none;endArrow=open;endSize=8;strokeColor=#ff0000;fontFamily=Verdana;fontSize=12;align=left;exitDx=0;exitDy=0;entryX=0.5;entryY=0;entryDx=0;entryDy=0;" parent="1" target="Y7ORPjoq6ikZlCJi7uoU-4" edge="1">
          <mxGeometry relative="1" as="geometry">
            <mxPoint x="890" y="340" as="sourcePoint" />
            <mxPoint x="890.5" y="380" as="targetPoint" />
            <Array as="points">
              <mxPoint x="890" y="360" />
              <mxPoint x="820" y="360" />
            </Array>
          </mxGeometry>
        </mxCell>
        <mxCell id="Y7ORPjoq6ikZlCJi7uoU-11" value="ContSMU &amp;gt; N &amp;amp;&amp;amp; BlockCalc != 1" style="edgeLabel;html=1;align=center;verticalAlign=middle;resizable=0;points=[];" parent="Y7ORPjoq6ikZlCJi7uoU-9" vertex="1" connectable="0">
          <mxGeometry x="0.5083" y="1" relative="1" as="geometry">
            <mxPoint as="offset" />
          </mxGeometry>
        </mxCell>
        <mxCell id="Y7ORPjoq6ikZlCJi7uoU-10" style="edgeStyle=orthogonalEdgeStyle;html=1;exitX=0.75;exitY=1;labelBackgroundColor=none;endArrow=open;endSize=8;strokeColor=#ff0000;fontFamily=Verdana;fontSize=12;align=left;exitDx=0;exitDy=0;entryX=0.5;entryY=0;entryDx=0;entryDy=0;" parent="1" source="Y7ORPjoq6ikZlCJi7uoU-3" target="Y7ORPjoq6ikZlCJi7uoU-5" edge="1">
          <mxGeometry relative="1" as="geometry">
            <mxPoint x="1090" y="340" as="sourcePoint" />
            <mxPoint x="1020" y="400" as="targetPoint" />
            <Array as="points">
              <mxPoint x="951" y="360" />
              <mxPoint x="1020" y="360" />
            </Array>
          </mxGeometry>
        </mxCell>
        <mxCell id="Y7ORPjoq6ikZlCJi7uoU-13" value="ContKMU &amp;gt; N &amp;amp;&amp;amp; BlockCalc != 1" style="edgeLabel;html=1;align=center;verticalAlign=middle;resizable=0;points=[];" parent="Y7ORPjoq6ikZlCJi7uoU-10" vertex="1" connectable="0">
          <mxGeometry x="0.4582" y="2" relative="1" as="geometry">
            <mxPoint x="-12" y="1" as="offset" />
          </mxGeometry>
        </mxCell>
        <mxCell id="Y7ORPjoq6ikZlCJi7uoU-14" style="edgeStyle=orthogonalEdgeStyle;html=1;exitX=0;exitY=0.5;labelBackgroundColor=none;endArrow=open;endSize=8;strokeColor=#ff0000;fontFamily=Verdana;fontSize=12;align=left;exitDx=0;exitDy=0;entryX=0.25;entryY=1;entryDx=0;entryDy=0;" parent="1" source="Y7ORPjoq6ikZlCJi7uoU-3" target="dteMNdMqzlH5e8aGmHEx-26" edge="1">
          <mxGeometry relative="1" as="geometry">
            <mxPoint x="815.5" y="285" as="sourcePoint" />
            <mxPoint x="816" y="325" as="targetPoint" />
            <Array as="points">
              <mxPoint x="820" y="305" />
              <mxPoint x="820" y="250" />
              <mxPoint x="891" y="250" />
            </Array>
          </mxGeometry>
        </mxCell>
        <mxCell id="Y7ORPjoq6ikZlCJi7uoU-15" value="ContSMU &amp;lt;= N&lt;br&gt;or&lt;br&gt;ContKMU &amp;lt;= N" style="edgeLabel;html=1;align=center;verticalAlign=middle;resizable=0;points=[];" parent="Y7ORPjoq6ikZlCJi7uoU-14" vertex="1" connectable="0">
          <mxGeometry x="-0.2214" y="2" relative="1" as="geometry">
            <mxPoint as="offset" />
          </mxGeometry>
        </mxCell>
        <mxCell id="Y7ORPjoq6ikZlCJi7uoU-19" style="edgeStyle=orthogonalEdgeStyle;html=1;labelBackgroundColor=none;endArrow=open;endSize=8;strokeColor=#ff0000;fontFamily=Verdana;fontSize=12;align=left;entryX=0.75;entryY=0;entryDx=0;entryDy=0;" parent="1" target="Y7ORPjoq6ikZlCJi7uoU-6" edge="1">
          <mxGeometry relative="1" as="geometry">
            <mxPoint x="1020" y="500" as="sourcePoint" />
            <mxPoint x="950" y="540" as="targetPoint" />
            <Array as="points">
              <mxPoint x="1020" y="510" />
              <mxPoint x="950" y="510" />
            </Array>
          </mxGeometry>
        </mxCell>
        <mxCell id="Y7ORPjoq6ikZlCJi7uoU-24" style="edgeStyle=orthogonalEdgeStyle;html=1;labelBackgroundColor=none;endArrow=open;endSize=8;strokeColor=#ff0000;fontFamily=Verdana;fontSize=12;align=left;entryX=0;entryY=0.5;entryDx=0;entryDy=0;exitX=0.5;exitY=1;exitDx=0;exitDy=0;" parent="1" source="Y7ORPjoq6ikZlCJi7uoU-6" target="dteMNdMqzlH5e8aGmHEx-26" edge="1">
          <mxGeometry relative="1" as="geometry">
            <mxPoint x="917" y="620" as="sourcePoint" />
            <mxPoint x="856.5" y="180" as="targetPoint" />
            <Array as="points">
              <mxPoint x="921" y="830" />
              <mxPoint x="726" y="830" />
              <mxPoint x="726" y="200" />
            </Array>
          </mxGeometry>
        </mxCell>
        <mxCell id="Y7ORPjoq6ikZlCJi7uoU-25" value="Number of Points in one Cycle = N" style="text;html=1;align=center;verticalAlign=middle;resizable=0;points=[];autosize=1;strokeColor=none;fillColor=none;" parent="1" vertex="1">
          <mxGeometry x="591" y="10" width="210" height="30" as="geometry" />
        </mxCell>
        <mxCell id="Y7ORPjoq6ikZlCJi7uoU-31" value="&lt;font color=&quot;#ff0000&quot;&gt;if Erro X &amp;lt;= Erro Y&lt;br&gt;ContKMU++&lt;br&gt;else&lt;br&gt;ContSMU++&lt;/font&gt;" style="text;html=1;align=center;verticalAlign=middle;resizable=0;points=[];autosize=1;strokeColor=none;fillColor=none;" parent="1" vertex="1">
          <mxGeometry x="360" y="880" width="120" height="70" as="geometry" />
        </mxCell>
        <mxCell id="Bgu9Oo_tDkSNlxmlILWr-1" value="" style="group" parent="1" vertex="1" connectable="0">
          <mxGeometry x="80" y="880" width="259" height="120" as="geometry" />
        </mxCell>
        <mxCell id="Y7ORPjoq6ikZlCJi7uoU-26" value="&lt;font style=&quot;font-size: 16px;&quot;&gt;Calculus of Dispersion&lt;br&gt;&lt;/font&gt;&lt;u&gt;MU Backup.Value - MU Principal.Value&lt;/u&gt;&lt;div&gt;&amp;nbsp;MU Principal.Value&lt;/div&gt;&lt;div&gt;&lt;br&gt;&lt;/div&gt;&lt;div&gt;&lt;u style=&quot;border-color: var(--border-color);&quot;&gt;MU Principal.Value - MU Backup.Value&lt;/u&gt;&lt;div style=&quot;border-color: var(--border-color);&quot;&gt;MU Backup.Value&lt;/div&gt;&lt;/div&gt;&lt;div&gt;&lt;br&gt;&lt;/div&gt;" style="text;html=1;align=center;verticalAlign=middle;resizable=0;points=[];autosize=1;strokeColor=none;fillColor=none;" parent="Bgu9Oo_tDkSNlxmlILWr-1" vertex="1">
          <mxGeometry x="29" width="230" height="120" as="geometry" />
        </mxCell>
        <mxCell id="Y7ORPjoq6ikZlCJi7uoU-27" value="X =" style="text;html=1;align=center;verticalAlign=middle;resizable=0;points=[];autosize=1;strokeColor=none;fillColor=none;" parent="Bgu9Oo_tDkSNlxmlILWr-1" vertex="1">
          <mxGeometry y="20" width="40" height="30" as="geometry" />
        </mxCell>
        <mxCell id="Y7ORPjoq6ikZlCJi7uoU-28" value="Y =&amp;nbsp;" style="text;html=1;align=center;verticalAlign=middle;resizable=0;points=[];autosize=1;strokeColor=none;fillColor=none;" parent="Bgu9Oo_tDkSNlxmlILWr-1" vertex="1">
          <mxGeometry y="60" width="40" height="30" as="geometry" />
        </mxCell>
        <mxCell id="Bgu9Oo_tDkSNlxmlILWr-2" value="" style="group" parent="1" vertex="1" connectable="0">
          <mxGeometry x="160" y="1000" width="90" height="50" as="geometry" />
        </mxCell>
        <mxCell id="Y7ORPjoq6ikZlCJi7uoU-29" value="Erro X = |X|" style="text;html=1;align=center;verticalAlign=middle;resizable=0;points=[];autosize=1;strokeColor=none;fillColor=none;" parent="Bgu9Oo_tDkSNlxmlILWr-2" vertex="1">
          <mxGeometry width="90" height="30" as="geometry" />
        </mxCell>
        <mxCell id="Y7ORPjoq6ikZlCJi7uoU-30" value="Erro Y = |Y|" style="text;html=1;align=center;verticalAlign=middle;resizable=0;points=[];autosize=1;strokeColor=none;fillColor=none;" parent="Bgu9Oo_tDkSNlxmlILWr-2" vertex="1">
          <mxGeometry y="20" width="90" height="30" as="geometry" />
        </mxCell>
        <mxCell id="Bgu9Oo_tDkSNlxmlILWr-3" value="&lt;b&gt;Toogle MU&lt;/b&gt;" style="rounded=1;whiteSpace=wrap;html=1;arcSize=24;fillColor=#ffffc0;strokeColor=#ff0000;shadow=0;comic=0;labelBackgroundColor=none;fontFamily=Verdana;fontSize=12;fontColor=#000000;align=center;" parent="1" vertex="1">
          <mxGeometry x="761" y="580" width="120" height="60" as="geometry" />
        </mxCell>
        <mxCell id="Bgu9Oo_tDkSNlxmlILWr-4" style="edgeStyle=orthogonalEdgeStyle;html=1;exitX=0.5;exitY=1;labelBackgroundColor=none;endArrow=open;endSize=8;strokeColor=#ff0000;fontFamily=Verdana;fontSize=12;align=left;exitDx=0;exitDy=0;entryX=0.5;entryY=0;entryDx=0;entryDy=0;" parent="1" source="Y7ORPjoq6ikZlCJi7uoU-4" target="Bgu9Oo_tDkSNlxmlILWr-3" edge="1">
          <mxGeometry relative="1" as="geometry">
            <mxPoint x="820" y="530" as="sourcePoint" />
            <mxPoint x="751" y="630" as="targetPoint" />
            <Array as="points">
              <mxPoint x="821" y="550" />
              <mxPoint x="821" y="550" />
            </Array>
          </mxGeometry>
        </mxCell>
        <mxCell id="Bgu9Oo_tDkSNlxmlILWr-5" value="Error &amp;gt; 25%" style="edgeLabel;html=1;align=center;verticalAlign=middle;resizable=0;points=[];" parent="Bgu9Oo_tDkSNlxmlILWr-4" vertex="1" connectable="0">
          <mxGeometry x="0.5083" y="1" relative="1" as="geometry">
            <mxPoint x="-1" y="-15" as="offset" />
          </mxGeometry>
        </mxCell>
        <mxCell id="Bgu9Oo_tDkSNlxmlILWr-6" style="edgeStyle=orthogonalEdgeStyle;html=1;labelBackgroundColor=none;endArrow=open;endSize=8;strokeColor=#ff0000;fontFamily=Verdana;fontSize=12;align=left;entryX=0;entryY=0.5;entryDx=0;entryDy=0;exitX=1;exitY=0.5;exitDx=0;exitDy=0;" parent="1" source="Y7ORPjoq6ikZlCJi7uoU-4" target="Y7ORPjoq6ikZlCJi7uoU-5" edge="1">
          <mxGeometry relative="1" as="geometry">
            <mxPoint x="910" y="510" as="sourcePoint" />
            <mxPoint x="831" y="570" as="targetPoint" />
            <Array as="points">
              <mxPoint x="940" y="470" />
              <mxPoint x="940" y="470" />
            </Array>
          </mxGeometry>
        </mxCell>
        <mxCell id="Bgu9Oo_tDkSNlxmlILWr-7" value="Error &amp;lt; 25%" style="edgeLabel;html=1;align=center;verticalAlign=middle;resizable=0;points=[];" parent="Bgu9Oo_tDkSNlxmlILWr-6" vertex="1" connectable="0">
          <mxGeometry x="0.5083" y="1" relative="1" as="geometry">
            <mxPoint x="-25" y="1" as="offset" />
          </mxGeometry>
        </mxCell>
        <mxCell id="Bgu9Oo_tDkSNlxmlILWr-11" style="edgeStyle=orthogonalEdgeStyle;html=1;exitX=0.5;exitY=1;labelBackgroundColor=none;endArrow=open;endSize=8;strokeColor=#ff0000;fontFamily=Verdana;fontSize=12;align=left;exitDx=0;exitDy=0;entryX=0.25;entryY=0;entryDx=0;entryDy=0;" parent="1" source="Bgu9Oo_tDkSNlxmlILWr-3" target="Y7ORPjoq6ikZlCJi7uoU-6" edge="1">
          <mxGeometry relative="1" as="geometry">
            <mxPoint x="820.5" y="630" as="sourcePoint" />
            <mxPoint x="820.5" y="690" as="targetPoint" />
            <Array as="points">
              <mxPoint x="821" y="680" />
              <mxPoint x="890" y="680" />
            </Array>
          </mxGeometry>
        </mxCell>
        <mxCell id="Bgu9Oo_tDkSNlxmlILWr-14" style="edgeStyle=orthogonalEdgeStyle;html=1;exitX=0.5;exitY=1;labelBackgroundColor=none;endArrow=open;endSize=8;strokeColor=#ff0000;fontFamily=Verdana;fontSize=12;align=left;exitDx=0;exitDy=0;entryX=0.5;entryY=0;entryDx=0;entryDy=0;" parent="1" source="dteMNdMqzlH5e8aGmHEx-26" target="Y7ORPjoq6ikZlCJi7uoU-3" edge="1">
          <mxGeometry relative="1" as="geometry">
            <mxPoint x="931" y="245" as="sourcePoint" />
            <mxPoint x="931" y="295" as="targetPoint" />
            <Array as="points" />
          </mxGeometry>
        </mxCell>
        <mxCell id="Bgu9Oo_tDkSNlxmlILWr-19" value="BlockCalc != 1" style="edgeLabel;html=1;align=center;verticalAlign=middle;resizable=0;points=[];" parent="Bgu9Oo_tDkSNlxmlILWr-14" vertex="1" connectable="0">
          <mxGeometry x="-0.3" y="1" relative="1" as="geometry">
            <mxPoint x="18" as="offset" />
          </mxGeometry>
        </mxCell>
        <mxCell id="Bgu9Oo_tDkSNlxmlILWr-15" style="edgeStyle=orthogonalEdgeStyle;html=1;exitX=1;exitY=0.5;labelBackgroundColor=none;endArrow=open;endSize=8;strokeColor=#ff0000;fontFamily=Verdana;fontSize=12;align=left;exitDx=0;exitDy=0;entryX=1;entryY=0.75;entryDx=0;entryDy=0;" parent="1" source="Y7ORPjoq6ikZlCJi7uoU-3" target="dteMNdMqzlH5e8aGmHEx-26" edge="1">
          <mxGeometry relative="1" as="geometry">
            <mxPoint x="1010" y="285" as="sourcePoint" />
            <mxPoint x="1010" y="325" as="targetPoint" />
            <Array as="points">
              <mxPoint x="1050" y="305" />
              <mxPoint x="1050" y="215" />
            </Array>
          </mxGeometry>
        </mxCell>
        <mxCell id="Bgu9Oo_tDkSNlxmlILWr-16" value="BlockCalc = 1" style="edgeLabel;html=1;align=center;verticalAlign=middle;resizable=0;points=[];" parent="Bgu9Oo_tDkSNlxmlILWr-15" vertex="1" connectable="0">
          <mxGeometry x="0.0263" y="-2" relative="1" as="geometry">
            <mxPoint as="offset" />
          </mxGeometry>
        </mxCell>
        <mxCell id="Bgu9Oo_tDkSNlxmlILWr-17" style="edgeStyle=orthogonalEdgeStyle;html=1;exitX=1;exitY=0.25;labelBackgroundColor=none;endArrow=open;endSize=8;strokeColor=#ff0000;fontFamily=Verdana;fontSize=12;align=left;exitDx=0;exitDy=0;entryX=0.75;entryY=0;entryDx=0;entryDy=0;" parent="1" source="dteMNdMqzlH5e8aGmHEx-26" target="dteMNdMqzlH5e8aGmHEx-26" edge="1">
          <mxGeometry relative="1" as="geometry">
            <mxPoint x="1031" y="180" as="sourcePoint" />
            <mxPoint x="1001" y="150" as="targetPoint" />
            <Array as="points">
              <mxPoint x="1031" y="185" />
              <mxPoint x="1031" y="200" />
              <mxPoint x="1050" y="200" />
              <mxPoint x="1050" y="150" />
              <mxPoint x="951" y="150" />
            </Array>
          </mxGeometry>
        </mxCell>
        <mxCell id="Bgu9Oo_tDkSNlxmlILWr-18" value="BlockCalc = 1" style="edgeLabel;html=1;align=center;verticalAlign=middle;resizable=0;points=[];" parent="Bgu9Oo_tDkSNlxmlILWr-17" vertex="1" connectable="0">
          <mxGeometry x="-0.0992" y="-3" relative="1" as="geometry">
            <mxPoint as="offset" />
          </mxGeometry>
        </mxCell>
        <mxCell id="Bgu9Oo_tDkSNlxmlILWr-20" value="&lt;b&gt;&lt;i&gt;FSM Quality&lt;/i&gt;&lt;/b&gt;" style="text;html=1;align=center;verticalAlign=middle;resizable=0;points=[];autosize=1;strokeColor=none;fillColor=none;" parent="1" vertex="1">
          <mxGeometry x="330" y="18" width="90" height="30" as="geometry" />
        </mxCell>
        <mxCell id="Bgu9Oo_tDkSNlxmlILWr-21" value="&lt;b&gt;&lt;i&gt;FSM Dispersion&lt;/i&gt;&lt;/b&gt;" style="text;html=1;align=center;verticalAlign=middle;resizable=0;points=[];autosize=1;strokeColor=none;fillColor=none;" parent="1" vertex="1">
          <mxGeometry x="930" y="10" width="110" height="30" as="geometry" />
        </mxCell>
      </root>
    </mxGraphModel>
  </diagram>
</mxfile>
